<?xml version="1.0" encoding="utf-8"?>
<!-- Svg Vector Icons : http://www.onlinewebfonts.com/icon -->
<!DOCTYPE svg PUBLIC "-//W3C//DTD SVG 1.1//EN" "http://www.w3.org/Graphics/SVG/1.1/DTD/svg11.dtd">
<svg version="1.1" xmlns="http://www.w3.org/2000/svg" xmlns:xlink="http://www.w3.org/1999/xlink" x="0px" y="0px" viewBox="0 0 1000 1000" enable-background="new 0 0 1000 1000" xml:space="preserve">
<metadata> Svg Vector Icons : http://www.onlinewebfonts.com/icon </metadata>
<g><path d="M985,385.4c-11.4,45.2-37.3,81.9-77.4,110.1c-38.9,27.4-83.3,41.3-133.4,42v0.5h-61.1v-1.7h-88.3l46-190.3h98.5L742,462H759h15.3c58.9,0,96.6-33.5,107.2-76.6c8.3-33.8-7.1-53.5-45.3-59.5v-8l-158.6,0l5.9-24.4L464.5,583.9c11.5-0.1,22.9-0.3,34.6-0.3c270.1,0,489.1,40.8,489.1,91.2c0,50.4-219,91.2-489.1,91.2C229,766,10,725.2,10,674.8c0-47.2,192.4-86.1,439-90.7L368.6,310h-8.9c9.8,21.5,11.9,46.6,6,75.4c-9.2,45.2-33.2,81.9-71.9,110.1c-38.6,28.1-83.6,42.1-135.4,42.1c-1.1,0-4.9-0.1-10.8-0.3v0.7h-45.9v-1.7H13L49.6,346h98.4l-21.4,116h21.1h15.3c58.9,0,90.8-33.5,99.2-76.6c7-36.1-11.7-56.3-56.1-60.7V318L55,318l16.2-84h137.6h137.6h45.9H438l45.9,197.6L621.4,234h76.4h30.6h107c60.9,0,96.3,15.5,124.6,42.8C988.2,303.9,996.5,340.1,985,385.4z M376.8,674.8c0,25.2,54.7,45.6,122.3,45.6s122.3-20.4,122.3-45.6c0-25.2-54.7-45.6-122.3-45.6C431.6,629.2,376.8,649.6,376.8,674.8z"/></g>
</svg>